<mxfile host="app.diagrams.net" modified="2020-11-05T20:39:21.838Z" agent="5.0 (Windows NT 6.1; Win64; x64) AppleWebKit/537.36 (KHTML, like Gecko) Chrome/86.0.4240.183 Safari/537.36" etag="eNRqj_9dT9IJcCIYv7ww" version="13.8.9-1" type="github">
  <diagram name="Page-1" id="e7e014a7-5840-1c2e-5031-d8a46d1fe8dd">
    <mxGraphModel dx="1038" dy="580" grid="1" gridSize="10" guides="1" tooltips="1" connect="1" arrows="1" fold="1" page="1" pageScale="1" pageWidth="1169" pageHeight="826" background="#ffffff" math="0" shadow="0">
      <root>
        <mxCell id="0" />
        <mxCell id="1" parent="0" />
        <mxCell id="7EgW8TAIfC-clBI2U1-3-41" value="&lt;b&gt;&lt;font style=&quot;font-size: 17px&quot;&gt;Pubblicazione&lt;/font&gt;&lt;/b&gt;" style="text;html=1;strokeColor=#d79b00;fillColor=#ffe6cc;align=center;verticalAlign=middle;whiteSpace=wrap;rounded=0;" vertex="1" parent="1">
          <mxGeometry x="10" y="10" width="200" height="40" as="geometry" />
        </mxCell>
        <mxCell id="7EgW8TAIfC-clBI2U1-3-44" value="&lt;b style=&quot;font-size: 14px&quot;&gt;1&lt;font style=&quot;font-size: 14px&quot;&gt;) MODELLO E/R&lt;/font&gt;&lt;/b&gt;" style="text;html=1;strokeColor=none;fillColor=none;align=center;verticalAlign=middle;whiteSpace=wrap;rounded=0;" vertex="1" parent="1">
          <mxGeometry x="10" y="70" width="140" height="20" as="geometry" />
        </mxCell>
        <mxCell id="7EgW8TAIfC-clBI2U1-3-62" style="edgeStyle=orthogonalEdgeStyle;rounded=0;orthogonalLoop=1;jettySize=auto;html=1;exitX=0.5;exitY=0;exitDx=0;exitDy=0;entryX=0.639;entryY=1;entryDx=0;entryDy=0;entryPerimeter=0;startArrow=none;startFill=0;endArrow=ERmany;endFill=0;" edge="1" parent="1" source="7EgW8TAIfC-clBI2U1-3-45" target="7EgW8TAIfC-clBI2U1-3-47">
          <mxGeometry relative="1" as="geometry" />
        </mxCell>
        <mxCell id="7EgW8TAIfC-clBI2U1-3-45" value="&lt;div style=&quot;box-sizing: border-box ; width: 100% ; background: #e4e4e4 ; padding: 2px&quot;&gt;Categoria&lt;/div&gt;&lt;table style=&quot;width: 100% ; font-size: 1em&quot; cellpadding=&quot;2&quot; cellspacing=&quot;0&quot;&gt;&lt;tbody&gt;&lt;tr&gt;&lt;td&gt;PK&lt;/td&gt;&lt;td&gt;id_categoria&lt;/td&gt;&lt;/tr&gt;&lt;tr&gt;&lt;td&gt;&lt;br&gt;nome&lt;br&gt;descrizione&lt;/td&gt;&lt;td&gt;&lt;br&gt;&lt;/td&gt;&lt;/tr&gt;&lt;tr&gt;&lt;td&gt;&lt;/td&gt;&lt;td&gt;&lt;br&gt;&lt;/td&gt;&lt;/tr&gt;&lt;/tbody&gt;&lt;/table&gt;" style="verticalAlign=top;align=left;overflow=fill;html=1;rounded=0;" vertex="1" parent="1">
          <mxGeometry x="55" y="350" width="180" height="90" as="geometry" />
        </mxCell>
        <mxCell id="7EgW8TAIfC-clBI2U1-3-46" value="&lt;div style=&quot;box-sizing: border-box ; width: 100% ; background: #e4e4e4 ; padding: 2px&quot;&gt;Autore&lt;/div&gt;&lt;table style=&quot;width: 100% ; font-size: 1em&quot; cellpadding=&quot;2&quot; cellspacing=&quot;0&quot;&gt;&lt;tbody&gt;&lt;tr&gt;&lt;td&gt;PK&lt;/td&gt;&lt;td&gt;id_autore&lt;/td&gt;&lt;/tr&gt;&lt;tr&gt;&lt;td&gt;&lt;br&gt;nome&lt;br&gt;cognome&lt;br&gt;nazionalità&lt;/td&gt;&lt;td&gt;&lt;br&gt;&lt;/td&gt;&lt;/tr&gt;&lt;tr&gt;&lt;td&gt;&lt;/td&gt;&lt;td&gt;&lt;br&gt;&lt;/td&gt;&lt;/tr&gt;&lt;/tbody&gt;&lt;/table&gt;" style="verticalAlign=top;align=left;overflow=fill;html=1;rounded=0;" vertex="1" parent="1">
          <mxGeometry x="405" y="110" width="180" height="100" as="geometry" />
        </mxCell>
        <mxCell id="7EgW8TAIfC-clBI2U1-3-49" style="edgeStyle=orthogonalEdgeStyle;rounded=0;orthogonalLoop=1;jettySize=auto;html=1;exitX=1;exitY=0.5;exitDx=0;exitDy=0;entryX=0;entryY=0.5;entryDx=0;entryDy=0;startArrow=ERmany;startFill=0;endArrow=ERmany;endFill=0;" edge="1" parent="1" source="7EgW8TAIfC-clBI2U1-3-47" target="7EgW8TAIfC-clBI2U1-3-46">
          <mxGeometry relative="1" as="geometry" />
        </mxCell>
        <mxCell id="7EgW8TAIfC-clBI2U1-3-47" value="&lt;div style=&quot;box-sizing: border-box ; width: 100% ; background: #e4e4e4 ; padding: 2px&quot;&gt;Pubblicazione&lt;/div&gt;&lt;table style=&quot;width: 100% ; font-size: 1em&quot; cellpadding=&quot;2&quot; cellspacing=&quot;0&quot;&gt;&lt;tbody&gt;&lt;tr&gt;&lt;td&gt;PK&lt;/td&gt;&lt;td&gt;IBSN&lt;/td&gt;&lt;/tr&gt;&lt;tr&gt;&lt;td&gt;&lt;br&gt;titolo&lt;br&gt;data&lt;br&gt;argomento&lt;/td&gt;&lt;td&gt;&lt;/td&gt;&lt;/tr&gt;&lt;/tbody&gt;&lt;/table&gt;" style="verticalAlign=top;align=left;overflow=fill;html=1;rounded=0;" vertex="1" parent="1">
          <mxGeometry x="30" y="110" width="180" height="100" as="geometry" />
        </mxCell>
        <mxCell id="7EgW8TAIfC-clBI2U1-3-50" value="pubblica" style="text;html=1;align=center;verticalAlign=middle;resizable=0;points=[];autosize=1;" vertex="1" parent="1">
          <mxGeometry x="330" y="130" width="60" height="20" as="geometry" />
        </mxCell>
        <mxCell id="7EgW8TAIfC-clBI2U1-3-54" value="&lt;b&gt;&lt;font style=&quot;font-size: 14px&quot;&gt;2) MODELLO LOGICO&lt;/font&gt;&lt;/b&gt;" style="text;html=1;align=center;verticalAlign=middle;resizable=0;points=[];autosize=1;" vertex="1" parent="1">
          <mxGeometry x="10" y="520" width="160" height="20" as="geometry" />
        </mxCell>
        <mxCell id="7EgW8TAIfC-clBI2U1-3-73" value="appartiene" style="text;html=1;align=center;verticalAlign=middle;resizable=0;points=[];autosize=1;rotation=90;" vertex="1" parent="1">
          <mxGeometry x="120" y="260" width="70" height="20" as="geometry" />
        </mxCell>
        <mxCell id="7EgW8TAIfC-clBI2U1-3-75" value="" style="endArrow=classic;html=1;" edge="1" parent="1">
          <mxGeometry width="50" height="50" relative="1" as="geometry">
            <mxPoint x="340" y="150" as="sourcePoint" />
            <mxPoint x="310" y="150" as="targetPoint" />
          </mxGeometry>
        </mxCell>
        <mxCell id="7EgW8TAIfC-clBI2U1-3-77" value="" style="endArrow=classic;html=1;" edge="1" parent="1">
          <mxGeometry width="50" height="50" relative="1" as="geometry">
            <mxPoint x="150" y="300" as="sourcePoint" />
            <mxPoint x="150" y="340" as="targetPoint" />
          </mxGeometry>
        </mxCell>
        <mxCell id="7EgW8TAIfC-clBI2U1-3-78" value="può(linea tratteggiata)" style="text;html=1;align=center;verticalAlign=middle;resizable=0;points=[];autosize=1;rotation=0;" vertex="1" parent="1">
          <mxGeometry x="20" y="330" width="130" height="20" as="geometry" />
        </mxCell>
        <mxCell id="7EgW8TAIfC-clBI2U1-3-79" style="edgeStyle=orthogonalEdgeStyle;rounded=0;orthogonalLoop=1;jettySize=auto;html=1;exitX=0.5;exitY=0;exitDx=0;exitDy=0;entryX=0.639;entryY=1;entryDx=0;entryDy=0;entryPerimeter=0;startArrow=none;startFill=0;endArrow=ERmany;endFill=0;" edge="1" source="7EgW8TAIfC-clBI2U1-3-80" target="7EgW8TAIfC-clBI2U1-3-83" parent="1">
          <mxGeometry relative="1" as="geometry" />
        </mxCell>
        <mxCell id="7EgW8TAIfC-clBI2U1-3-80" value="&lt;div style=&quot;box-sizing: border-box ; width: 100% ; background: #e4e4e4 ; padding: 2px&quot;&gt;Categoria&lt;/div&gt;&lt;table style=&quot;width: 100% ; font-size: 1em&quot; cellpadding=&quot;2&quot; cellspacing=&quot;0&quot;&gt;&lt;tbody&gt;&lt;tr&gt;&lt;td&gt;PK&lt;/td&gt;&lt;td&gt;id_categoria&lt;/td&gt;&lt;/tr&gt;&lt;tr&gt;&lt;td&gt;&lt;br&gt;nome&lt;br&gt;descrizione&lt;/td&gt;&lt;td&gt;&lt;br&gt;&lt;/td&gt;&lt;/tr&gt;&lt;tr&gt;&lt;td&gt;&lt;/td&gt;&lt;td&gt;&lt;br&gt;&lt;/td&gt;&lt;/tr&gt;&lt;/tbody&gt;&lt;/table&gt;" style="verticalAlign=top;align=left;overflow=fill;html=1;rounded=0;" vertex="1" parent="1">
          <mxGeometry x="90" y="820" width="180" height="90" as="geometry" />
        </mxCell>
        <mxCell id="7EgW8TAIfC-clBI2U1-3-91" style="edgeStyle=orthogonalEdgeStyle;rounded=0;orthogonalLoop=1;jettySize=auto;html=1;entryX=0.5;entryY=1;entryDx=0;entryDy=0;startArrow=none;startFill=0;endArrow=ERmany;endFill=0;" edge="1" parent="1" source="7EgW8TAIfC-clBI2U1-3-81" target="7EgW8TAIfC-clBI2U1-3-89">
          <mxGeometry relative="1" as="geometry" />
        </mxCell>
        <mxCell id="7EgW8TAIfC-clBI2U1-3-81" value="&lt;div style=&quot;box-sizing: border-box ; width: 100% ; background: #e4e4e4 ; padding: 2px&quot;&gt;Autore&lt;/div&gt;&lt;table style=&quot;width: 100% ; font-size: 1em&quot; cellpadding=&quot;2&quot; cellspacing=&quot;0&quot;&gt;&lt;tbody&gt;&lt;tr&gt;&lt;td&gt;PK&lt;/td&gt;&lt;td&gt;id_autore&lt;/td&gt;&lt;/tr&gt;&lt;tr&gt;&lt;td&gt;&lt;br&gt;nome&lt;br&gt;cognome&lt;br&gt;nazionalità&lt;/td&gt;&lt;td&gt;&lt;br&gt;&lt;/td&gt;&lt;/tr&gt;&lt;tr&gt;&lt;td&gt;&lt;/td&gt;&lt;td&gt;&lt;br&gt;&lt;/td&gt;&lt;/tr&gt;&lt;/tbody&gt;&lt;/table&gt;" style="verticalAlign=top;align=left;overflow=fill;html=1;rounded=0;" vertex="1" parent="1">
          <mxGeometry x="460" y="810" width="180" height="100" as="geometry" />
        </mxCell>
        <mxCell id="7EgW8TAIfC-clBI2U1-3-90" style="edgeStyle=orthogonalEdgeStyle;rounded=0;orthogonalLoop=1;jettySize=auto;html=1;exitX=1;exitY=0.5;exitDx=0;exitDy=0;entryX=0;entryY=0.611;entryDx=0;entryDy=0;entryPerimeter=0;startArrow=none;startFill=0;endArrow=ERmany;endFill=0;" edge="1" parent="1" source="7EgW8TAIfC-clBI2U1-3-83" target="7EgW8TAIfC-clBI2U1-3-89">
          <mxGeometry relative="1" as="geometry" />
        </mxCell>
        <mxCell id="7EgW8TAIfC-clBI2U1-3-83" value="&lt;div style=&quot;box-sizing: border-box ; width: 100% ; background: #e4e4e4 ; padding: 2px&quot;&gt;Pubblicazione&lt;/div&gt;&lt;table style=&quot;width: 100% ; font-size: 1em&quot; cellpadding=&quot;2&quot; cellspacing=&quot;0&quot;&gt;&lt;tbody&gt;&lt;tr&gt;&lt;td&gt;PK&lt;/td&gt;&lt;td&gt;IBSN&lt;/td&gt;&lt;/tr&gt;&lt;tr&gt;&lt;td&gt;&lt;br&gt;titolo&lt;br&gt;data&lt;br&gt;argomento&lt;/td&gt;&lt;td&gt;&lt;/td&gt;&lt;/tr&gt;&lt;/tbody&gt;&lt;/table&gt;" style="verticalAlign=top;align=left;overflow=fill;html=1;rounded=0;" vertex="1" parent="1">
          <mxGeometry x="65" y="580" width="180" height="100" as="geometry" />
        </mxCell>
        <mxCell id="7EgW8TAIfC-clBI2U1-3-84" value="è regolata" style="text;html=1;align=center;verticalAlign=middle;resizable=0;points=[];autosize=1;" vertex="1" parent="1">
          <mxGeometry x="360" y="600" width="70" height="20" as="geometry" />
        </mxCell>
        <mxCell id="7EgW8TAIfC-clBI2U1-3-85" value="appartiene" style="text;html=1;align=center;verticalAlign=middle;resizable=0;points=[];autosize=1;rotation=90;" vertex="1" parent="1">
          <mxGeometry x="155" y="730" width="70" height="20" as="geometry" />
        </mxCell>
        <mxCell id="7EgW8TAIfC-clBI2U1-3-86" value="" style="endArrow=classic;html=1;" edge="1" parent="1">
          <mxGeometry width="50" height="50" relative="1" as="geometry">
            <mxPoint x="375" y="620" as="sourcePoint" />
            <mxPoint x="345" y="620" as="targetPoint" />
          </mxGeometry>
        </mxCell>
        <mxCell id="7EgW8TAIfC-clBI2U1-3-87" value="" style="endArrow=classic;html=1;" edge="1" parent="1">
          <mxGeometry width="50" height="50" relative="1" as="geometry">
            <mxPoint x="185" y="770" as="sourcePoint" />
            <mxPoint x="185" y="790" as="targetPoint" />
          </mxGeometry>
        </mxCell>
        <mxCell id="7EgW8TAIfC-clBI2U1-3-88" value="può(linea tratteggiata)" style="text;html=1;align=center;verticalAlign=middle;resizable=0;points=[];autosize=1;rotation=0;" vertex="1" parent="1">
          <mxGeometry x="55" y="800" width="130" height="20" as="geometry" />
        </mxCell>
        <mxCell id="7EgW8TAIfC-clBI2U1-3-89" value="&lt;div style=&quot;box-sizing: border-box ; width: 100% ; background: #e4e4e4 ; padding: 2px&quot;&gt;Contratto&lt;/div&gt;&lt;table style=&quot;width: 100% ; font-size: 1em&quot; cellpadding=&quot;2&quot; cellspacing=&quot;0&quot;&gt;&lt;tbody&gt;&lt;tr&gt;&lt;td&gt;PK&lt;/td&gt;&lt;td&gt;id_contratto&lt;/td&gt;&lt;/tr&gt;&lt;tr&gt;&lt;td&gt;FK1&lt;/td&gt;&lt;td&gt;IBSN&lt;/td&gt;&lt;/tr&gt;&lt;tr&gt;&lt;td&gt;&lt;/td&gt;&lt;td&gt;d_autore&lt;/td&gt;&lt;/tr&gt;&lt;/tbody&gt;&lt;/table&gt;" style="verticalAlign=top;align=left;overflow=fill;html=1;rounded=0;" vertex="1" parent="1">
          <mxGeometry x="460" y="580" width="180" height="90" as="geometry" />
        </mxCell>
        <mxCell id="7EgW8TAIfC-clBI2U1-3-92" value="stipula" style="text;html=1;align=center;verticalAlign=middle;resizable=0;points=[];autosize=1;rotation=270;" vertex="1" parent="1">
          <mxGeometry x="510" y="740" width="50" height="20" as="geometry" />
        </mxCell>
        <mxCell id="7EgW8TAIfC-clBI2U1-3-93" value="" style="endArrow=classic;html=1;" edge="1" parent="1">
          <mxGeometry width="50" height="50" relative="1" as="geometry">
            <mxPoint x="540" y="730" as="sourcePoint" />
            <mxPoint x="540" y="710" as="targetPoint" />
          </mxGeometry>
        </mxCell>
        <mxCell id="7EgW8TAIfC-clBI2U1-3-95" value="&lt;b&gt;&lt;font style=&quot;font-size: 14px&quot;&gt;3)SCHEMA TABELLE&lt;/font&gt;&lt;/b&gt;" style="text;html=1;align=center;verticalAlign=middle;resizable=0;points=[];autosize=1;" vertex="1" parent="1">
          <mxGeometry x="20" y="980" width="160" height="20" as="geometry" />
        </mxCell>
        <mxCell id="7EgW8TAIfC-clBI2U1-3-99" value="&lt;span style=&quot;font-size: 16px&quot;&gt;Autore&amp;nbsp; &amp;nbsp; (&lt;u&gt;id_autore&lt;/u&gt;, nome, cognome, nazionalità)&lt;/span&gt;&lt;br style=&quot;font-size: 16px&quot;&gt;&lt;span style=&quot;font-size: 16px&quot;&gt;Pubblicazione&amp;nbsp; (&lt;u&gt;IBSN&lt;/u&gt;, titolo, data, argomento)&lt;/span&gt;&lt;br style=&quot;font-size: 16px&quot;&gt;&lt;span style=&quot;font-size: 16px&quot;&gt;Contratto&amp;nbsp; &amp;nbsp;(&lt;u&gt;id_contratto&lt;/u&gt;, &lt;b&gt;IBSN&lt;/b&gt;, &lt;b&gt;id_autore&lt;/b&gt;)&lt;/span&gt;&lt;br style=&quot;font-size: 16px&quot;&gt;&lt;span style=&quot;font-size: 16px&quot;&gt;Categoria&amp;nbsp; (&lt;i&gt;&lt;u&gt;id_categoria&lt;/u&gt;&lt;/i&gt;, nome, descrizione)&lt;/span&gt;" style="text;html=1;align=left;verticalAlign=middle;resizable=0;points=[];autosize=1;strokeWidth=1;fontStyle=0;fontSize=16;" vertex="1" parent="1">
          <mxGeometry x="30" y="1020" width="370" height="80" as="geometry" />
        </mxCell>
      </root>
    </mxGraphModel>
  </diagram>
</mxfile>
